<svg version="1.1" id="Layer_1" xmlns="http://www.w3.org/2000/svg" xmlns:xlink="http://www.w3.org/1999/xlink" x="0px" y="0px"
	 width="100px" heigh="100px" viewBox="0 0 592 592" enable-background="new 0 0 592 592" xml:space="preserve">
<path fill="#000000" opacity="1.000000" stroke="none" 
	d="
M337.499084,471.954224 
	C325.883850,467.126770 322.034576,458.066071 322.041168,446.608582 
	C322.062744,408.945221 322.023193,371.281830 322.016144,333.618469 
	C322.008789,294.288422 322.131653,254.957779 321.928223,215.628799 
	C321.875671,205.468811 324.914246,197.316696 332.746765,190.517075 
	C343.435577,181.237808 353.635986,171.390305 363.912079,161.645416 
	C366.430786,159.256897 368.661652,158.509552 371.808868,160.355072 
	C374.817657,162.119431 378.039276,163.532654 381.215149,164.996490 
	C383.731476,166.156357 385.470337,167.859818 386.790161,170.392075 
	C390.660431,177.817657 398.157196,180.828049 405.750183,178.334274 
	C413.017578,175.947433 417.076355,168.623611 415.719543,160.345215 
	C414.566681,153.311096 408.383301,148.394119 400.172791,148.284103 
	C394.635498,148.209900 390.825897,144.577133 386.095032,142.608932 
	C391.602570,134.667374 406.093018,133.681091 414.619873,140.865265 
	C421.110596,146.333939 427.194183,152.288193 433.420288,158.068008 
	C445.510376,169.291443 457.479858,180.646820 469.684265,191.744125 
	C476.440369,197.887344 479.336609,205.259415 479.324219,214.340393 
	C479.218414,292.000488 479.266479,369.660767 479.260132,447.320984 
	C479.258789,463.923157 469.847321,473.313812 453.225616,473.316742 
	C418.061859,473.322937 382.898132,473.307404 347.734406,473.337036 
	C344.381470,473.339844 341.075134,473.226410 337.499084,471.954224 
M402.231781,316.446075 
	C398.544128,314.507050 394.837738,312.600189 391.792023,309.668640 
	C386.660309,304.729187 386.937775,298.554932 388.272217,292.419159 
	C389.393066,287.265533 392.947113,284.134491 398.209686,283.047668 
	C408.532867,280.915802 416.470062,286.016937 418.328796,296.379211 
	C419.044769,300.370605 420.627167,302.020569 424.895111,301.774231 
	C431.372681,301.400360 437.902649,301.413818 444.382385,301.770752 
	C449.145538,302.033112 450.109192,299.921661 449.635742,295.813385 
	C447.977478,281.423553 440.792084,270.949982 427.772461,264.546143 
	C423.863342,262.623383 419.701691,261.370514 415.435181,260.612305 
	C412.572601,260.103638 411.526520,258.646576 411.605835,255.838699 
	C411.718689,251.843292 411.648804,247.839844 411.548553,243.842545 
	C411.501770,241.977432 411.161682,240.243835 408.934601,239.517853 
	C401.259155,237.015732 397.332977,239.703583 397.325439,247.567383 
	C397.314606,258.929993 397.314575,258.929993 386.590271,261.344238 
	C370.500214,264.966400 358.646820,276.277252 356.698853,291.779083 
	C354.597839,308.498840 357.925201,321.603912 374.839539,331.715485 
	C382.742981,336.440247 391.212738,339.908600 399.787140,343.145752 
	C404.179047,344.803864 408.404083,346.773041 412.128632,349.634399 
	C421.103180,356.528839 420.402618,372.905792 410.996063,377.416351 
	C399.003784,383.166931 384.903870,376.161926 382.681671,363.131073 
	C382.079163,359.598053 380.537354,358.333160 377.102875,358.395996 
	C370.106201,358.524048 363.100067,358.583862 356.108154,358.355408 
	C351.868500,358.216827 351.012543,360.163208 351.447235,363.868774 
	C353.707001,383.132812 363.679016,394.625336 382.457886,399.790955 
	C386.578613,400.924469 392.118256,399.887421 394.558716,403.204437 
	C396.955719,406.462402 395.117371,411.605164 395.352356,415.913025 
	C395.453033,417.758514 395.312622,420.004425 397.426910,420.568634 
	C400.976685,421.515930 404.870758,421.890869 408.209625,420.400879 
	C410.946991,419.179291 409.387177,415.908173 409.620392,413.547668 
	C409.816071,411.567322 409.797974,409.540192 409.627777,407.554901 
	C409.307037,403.813812 410.370056,402.020508 414.614899,401.362701 
	C424.832794,399.779205 434.297729,396.110168 441.223328,387.878876 
	C455.018158,371.483215 451.624603,344.731689 434.303101,331.902832 
	C424.781219,324.850647 413.701996,321.129486 402.231781,316.446075 
z"/>
<path fill="#000000" opacity="1.000000" stroke="none" 
	d="
M134.730469,395.000793 
	C134.742722,389.502808 133.466797,384.067291 134.989517,379.581787 
	C141.745956,359.679108 139.302902,338.366241 145.074493,318.366211 
	C147.409332,310.275391 150.582306,302.742249 157.355606,296.282867 
	C150.815582,295.223969 145.123123,294.308441 139.433441,293.376007 
	C138.286331,293.188019 137.131836,293.002716 136.011215,292.702484 
	C130.517822,291.230713 124.388794,290.176819 123.207939,283.313507 
	C122.038910,276.518921 125.138634,270.919739 130.156601,266.557220 
	C138.301666,259.476135 157.153427,258.660889 166.171173,264.677490 
	C169.857056,267.136719 170.519409,270.615417 170.374130,274.689178 
	C170.300201,276.762695 168.837921,279.837311 172.202606,280.585785 
	C175.306656,281.276337 175.771484,278.110260 176.808197,276.209076 
	C183.106628,264.658600 189.455963,253.131332 195.491882,241.443253 
	C204.685928,223.639725 219.699097,214.561539 239.025009,211.718735 
	C262.479401,208.268646 286.117676,208.118134 309.747711,207.767838 
	C313.232178,207.716187 314.367706,209.168671 314.362335,212.548050 
	C314.294495,255.200424 314.274170,297.853058 314.382690,340.505280 
	C314.393921,344.915894 312.059814,345.255829 308.684204,345.246216 
	C286.858307,345.184052 265.032135,345.195801 243.206070,345.207855 
	C234.541565,345.212616 232.605469,347.563019 233.999115,356.136597 
	C235.118546,363.023285 236.133377,369.927185 237.278305,376.809509 
	C239.115448,387.852997 245.125580,392.916992 256.439362,392.937469 
	C273.600281,392.968536 290.763367,393.092590 307.920959,392.852386 
	C312.954742,392.781921 314.573700,394.408630 314.427460,399.465759 
	C314.090546,411.118774 314.331635,422.788239 314.323700,434.451050 
	C314.319000,441.384338 314.306610,441.410797 307.538971,441.413208 
	C274.883148,441.424835 242.227325,441.421692 209.571503,441.422333 
	C201.108688,441.422516 200.529968,441.980927 200.436920,450.492737 
	C200.398712,453.989746 200.601761,457.497406 200.399033,460.983002 
	C199.932159,469.009857 194.500870,474.239929 186.503311,474.305084 
	C174.674683,474.401459 162.844696,474.356293 151.015350,474.335632 
	C140.320847,474.316925 134.810822,468.886963 134.761002,457.978485 
	C134.665909,437.152924 134.731644,416.326599 134.730469,395.000793 
M198.882980,323.666718 
	C191.461395,322.803131 184.044998,321.891418 176.616959,321.087433 
	C165.986633,319.936768 161.810425,323.162811 160.298767,333.544250 
	C160.131317,334.694275 159.892136,335.833771 159.687576,336.978424 
	C158.398026,344.194397 159.945480,346.741791 167.018265,348.531616 
	C178.940750,351.548645 190.889908,354.460327 202.827499,357.417725 
	C207.181030,358.496277 211.490524,359.823761 215.897324,360.598480 
	C221.572083,361.596100 224.037430,359.275543 223.850693,353.659515 
	C223.806473,352.329681 223.750458,350.996613 223.612808,349.674133 
	C221.761841,331.892517 217.063599,326.828430 198.882980,323.666718 
M178.101608,361.503876 
	C173.733261,360.485260 169.375916,359.415527 164.991409,358.472076 
	C163.116257,358.068573 161.288040,358.326172 160.102020,360.099945 
	C158.827927,362.005432 159.284348,363.869598 160.349060,365.720459 
	C161.618332,367.926910 163.685852,368.910187 166.002625,369.470215 
	C178.442139,372.477112 190.884155,375.474213 203.337311,378.423981 
	C205.690979,378.981476 208.214005,379.160583 209.361465,376.440826 
	C210.534225,373.661163 209.650650,371.089264 207.175613,369.432739 
	C205.699615,368.444885 203.896393,367.819275 202.152298,367.380432 
	C194.418137,365.434235 186.652145,363.614471 178.101608,361.503876 
z"/>
<path fill="#000000" opacity="1.000000" stroke="none" 
	d="
M399.486450,153.468582 
	C401.363281,154.613205 402.984131,155.487610 404.472137,156.548370 
	C408.482147,159.406967 409.543365,163.775146 407.200409,167.402802 
	C404.806488,171.109314 400.447083,172.293015 396.285645,169.803085 
	C385.401001,163.290451 374.187073,157.492554 362.350616,152.901062 
	C347.992798,147.331543 333.370422,143.138885 317.765503,143.303146 
	C291.591187,143.578674 272.445404,162.717331 272.303680,188.920380 
	C272.282104,192.907547 272.053314,196.907196 273.011169,200.856644 
	C273.653168,203.503632 273.124786,205.136002 269.762329,205.505112 
	C256.129028,207.001770 257.278320,207.488831 256.402069,195.095169 
	C253.912552,159.884583 278.363098,128.213593 316.707611,127.650673 
	C339.793213,127.311783 360.923401,134.505234 381.450012,144.060486 
	C387.480865,146.867889 393.269989,150.194626 399.486450,153.468582 
z"/>
</svg>