<svg width="40" height="40" viewBox="0 0 40 40" fill="none" xmlns="http://www.w3.org/2000/svg">
<path d="M28 16.5838V24.1562C28 24.8607 27.7201 25.5364 27.222 26.0345C26.7239 26.5326 26.0482 26.8125 25.3438 26.8125H13.6562C12.9518 26.8125 12.2761 26.5326 11.778 26.0345C11.2799 25.5364 11 24.8607 11 24.1562V16.5838L19.2301 21.4267C19.3119 21.4749 19.4051 21.5003 19.5 21.5003C19.5949 21.5003 19.6881 21.4749 19.7699 21.4267L28 16.5838ZM25.3438 13C25.9973 12.9999 26.628 13.2408 27.1152 13.6765C27.6023 14.1123 27.9116 14.7124 27.9841 15.3619L19.5 20.3525L11.0159 15.3619C11.0884 14.7124 11.3977 14.1123 11.8848 13.6765C12.372 13.2408 13.0027 12.9999 13.6562 13H25.3438Z" fill="#555555"/>
<circle cx="20" cy="20" r="19.5" stroke="black"/>
</svg>
