<svg width="13" height="12" viewBox="0 0 13 12" fill="none" xmlns="http://www.w3.org/2000/svg">
<path fill-rule="evenodd" clip-rule="evenodd" d="M6.16663 0C2.85283 0 0.166626 2.6862 0.166626 6C0.166626 9.3138 2.85283 12 6.16663 12C9.48043 12 12.1666 9.3138 12.1666 6C12.1666 2.6862 9.48043 0 6.16663 0ZM4.06663 4.5C4.06663 4.22422 4.12094 3.95115 4.22648 3.69637C4.33201 3.44158 4.4867 3.21008 4.6817 3.01508C4.87671 2.82007 5.10821 2.66539 5.36299 2.55985C5.61777 2.45432 5.89085 2.4 6.16663 2.4C6.4424 2.4 6.71548 2.45432 6.97026 2.55985C7.22505 2.66539 7.45655 2.82007 7.65155 3.01508C7.84655 3.21008 8.00124 3.44158 8.10677 3.69637C8.21231 3.95115 8.26663 4.22422 8.26663 4.5C8.26663 5.05695 8.04538 5.5911 7.65155 5.98492C7.25772 6.37875 6.72358 6.6 6.16663 6.6C5.60967 6.6 5.07553 6.37875 4.6817 5.98492C4.28788 5.5911 4.06663 5.05695 4.06663 4.5ZM9.92143 8.9904C9.47214 9.55521 8.90113 10.0113 8.25098 10.3246C7.60084 10.638 6.88834 10.8005 6.16663 10.8C5.44491 10.8005 4.73241 10.638 4.08227 10.3246C3.43212 10.0113 2.86111 9.55521 2.41183 8.9904C3.38443 8.2926 4.71163 7.8 6.16663 7.8C7.62163 7.8 8.94883 8.2926 9.92143 8.9904Z" fill="white"/>
</svg>
