<svg width="12" height="7" viewBox="0 0 12 7" fill="none" xmlns="http://www.w3.org/2000/svg">
<path fill-rule="evenodd" clip-rule="evenodd" d="M6.89756 6.32238C6.66147 6.53852 6.34145 6.65993 6.00778 6.65993C5.67411 6.65993 5.35409 6.53852 5.118 6.32238L0.368609 1.9703C0.132514 1.75378 -7.86752e-05 1.46015 3.50232e-08 1.15402C7.87452e-05 0.847881 0.132822 0.554312 0.369028 0.337892C0.605234 0.121471 0.925555 -7.21189e-05 1.25952 3.21045e-08C1.59349 7.21831e-05 1.91375 0.121754 2.14984 0.338276L6.00778 3.87472L9.86572 0.338276C10.1031 0.127926 10.4211 0.0114506 10.7512 0.0139367C11.0814 0.0164228 11.3972 0.137671 11.6308 0.351568C11.8644 0.565465 11.9969 0.854894 11.9999 1.15752C12.003 1.46015 11.8762 1.75175 11.647 1.96953L6.8984 6.32315L6.89756 6.32238Z" fill="white"/>
</svg>
