<svg width="40" height="40" viewBox="0 0 40 40" fill="none" xmlns="http://www.w3.org/2000/svg">
<path d="M28.9602 23.8313C28.7621 23.6203 28.0627 22.9965 26.7771 22.1711C25.4819 21.3385 24.5268 20.8194 24.2528 20.6984C24.2287 20.6877 24.2021 20.6837 24.1759 20.687C24.1496 20.6903 24.1248 20.7006 24.1041 20.717C23.6627 21.0611 22.9197 21.6933 22.8799 21.7275C22.6226 21.948 22.6226 21.948 22.412 21.8793C22.0416 21.7579 20.8911 21.1469 19.8885 20.1421C18.8859 19.1372 18.2435 17.9582 18.122 17.5882C18.0526 17.3772 18.0526 17.3772 18.2738 17.1199C18.308 17.0801 18.9406 16.3371 19.2847 15.8961C19.3011 15.8753 19.3114 15.8505 19.3147 15.8243C19.318 15.7981 19.314 15.7715 19.3033 15.7474C19.1823 15.473 18.6632 14.5182 17.8306 13.2231C17.0041 11.9378 16.381 11.2384 16.17 11.0404C16.1507 11.0221 16.1267 11.0094 16.1007 11.0036C16.0748 10.9978 16.0477 10.9991 16.0224 11.0073C15.2849 11.2608 14.5733 11.5842 13.8973 11.9731C13.2448 12.3524 12.627 12.7886 12.0512 13.2766C12.0311 13.2937 12.016 13.3159 12.0076 13.3409C11.9992 13.3659 11.9977 13.3928 12.0034 13.4185C12.0827 13.7881 12.4618 15.3311 13.6382 17.4683C14.8384 19.6495 15.6702 20.767 17.4329 22.5236C19.1956 24.2802 20.3484 25.1621 22.5319 26.3624C24.6691 27.5388 26.2128 27.9182 26.5817 27.9968C26.6075 28.0024 26.6343 28.0009 26.6594 27.9925C26.6844 27.9841 26.7068 27.969 26.724 27.949C27.2118 27.3732 27.6479 26.7554 28.0271 26.1028C28.4159 25.4268 28.7393 24.7153 28.9928 23.9778C29.0009 23.9527 29.0022 23.9258 28.9965 23.9001C28.9907 23.8743 28.9782 23.8506 28.9602 23.8313Z" fill="#555555"/>
<circle cx="20" cy="20" r="19.5" stroke="black"/>
</svg>
