<svg width="106" height="23" viewBox="0 0 106 23" fill="none" xmlns="http://www.w3.org/2000/svg">
<path d="M94.3334 16.1667V17.1667V16.1667ZM99 11.5L100 11.5L99 11.5ZM94.3334 6.83333V5.83333V6.83333ZM89.6667 11.5L88.6667 11.5L89.6667 11.5ZM89.6667 1V0V1ZM100.01 4.42232C99.6386 4.83097 99.6687 5.46342 100.077 5.83493C100.486 6.20644 101.118 6.17634 101.49 5.76768L100.01 4.42232ZM101.502 5.75485C101.873 5.3462 101.843 4.71375 101.434 4.34223C101.026 3.97072 100.393 4.00083 100.022 4.40948L101.502 5.75485ZM94.3334 17.1667C95.8363 17.1667 97.2776 16.5696 98.3403 15.5069L96.9261 14.0927C96.2385 14.7804 95.3058 15.1667 94.3334 15.1667V17.1667ZM98.3403 15.5069C99.403 14.4442 100 13.0029 100 11.5L98 11.5C98 12.4725 97.6137 13.4051 96.9261 14.0927L98.3403 15.5069ZM100 11.5C100 9.99711 99.403 8.55577 98.3403 7.49306L96.9261 8.90727C97.6137 9.59491 98 10.5275 98 11.5L100 11.5ZM98.3403 7.49306C97.2776 6.43035 95.8363 5.83333 94.3334 5.83333V7.83333C95.3058 7.83333 96.2385 8.21964 96.9261 8.90727L98.3403 7.49306ZM94.3334 5.83333C92.8305 5.83333 91.3891 6.43035 90.3264 7.49306L91.7406 8.90727C92.4283 8.21964 93.3609 7.83333 94.3334 7.83333V5.83333ZM90.3264 7.49306C89.2637 8.55577 88.6667 9.99711 88.6667 11.5L90.6667 11.5C90.6667 10.5275 91.053 9.59491 91.7406 8.90727L90.3264 7.49306ZM88.6667 11.5C88.6667 13.0029 89.2637 14.4442 90.3264 15.5069L91.7406 14.0927C91.053 13.4051 90.6667 12.4725 90.6667 11.5L88.6667 11.5ZM90.3264 15.5069C91.3891 16.5696 92.8305 17.1667 94.3334 17.1667V15.1667C93.3609 15.1667 92.4283 14.7804 91.7406 14.0927L90.3264 15.5069ZM84.8334 16.1667V6.83333H82.8334V16.1667H84.8334ZM84.8334 6.83333C84.8334 5.55145 85.3426 4.32208 86.249 3.41565L84.8348 2.00144C83.5533 3.28294 82.8334 5.02102 82.8334 6.83333H84.8334ZM86.249 3.41565C87.1555 2.50922 88.3848 2 89.6667 2V0C87.8544 0 86.1163 0.719938 84.8348 2.00144L86.249 3.41565ZM89.6667 2H99V0H89.6667V2ZM99 2C100.282 2 101.511 2.50922 102.418 3.41565L103.832 2.00144C102.55 0.719938 100.812 0 99 0V2ZM102.418 3.41565C103.324 4.32208 103.833 5.55145 103.833 6.83333H105.833C105.833 5.02102 105.113 3.28294 103.832 2.00144L102.418 3.41565ZM103.833 6.83333V16.1667H105.833V6.83333H103.833ZM103.833 16.1667C103.833 17.4485 103.324 18.6779 102.418 19.5843L103.832 20.9986C105.113 19.7171 105.833 17.979 105.833 16.1667H103.833ZM102.418 19.5843C101.511 20.4908 100.282 21 99 21V23C100.812 23 102.55 22.2801 103.832 20.9986L102.418 19.5843ZM99 21H89.6667V23H99V21ZM89.6667 21C88.3848 21 87.1555 20.4908 86.249 19.5843L84.8348 20.9986C86.1163 22.2801 87.8544 23 89.6667 23V21ZM86.249 19.5843C85.3426 18.6779 84.8334 17.4485 84.8334 16.1667H82.8334C82.8334 17.979 83.5533 19.7171 84.8348 20.9986L86.249 19.5843ZM101.49 5.76768L101.502 5.75485L100.022 4.40948L100.01 4.42232L101.49 5.76768Z" fill="#545454"/>
<path d="M75.3334 1H57.3287C56.5037 1 55.8334 1.67969 55.8334 2.51406V20.4859C55.8334 21.3203 56.5037 22 57.3287 22H75.3334C76.1584 22 76.8334 21.3203 76.8334 20.4859V2.51406C76.8334 1.67969 76.1584 1 75.3334 1ZM62.1802 19H59.0677V8.97812H62.1849V19H62.1802ZM60.624 7.60938C59.6256 7.60938 58.8193 6.79844 58.8193 5.80469C58.8193 4.81094 59.6256 4 60.624 4C61.6177 4 62.4287 4.81094 62.4287 5.80469C62.4287 6.80312 61.6224 7.60938 60.624 7.60938ZM73.8474 19H70.7349V14.125C70.7349 12.9625 70.7115 11.4672 69.1177 11.4672C67.4959 11.4672 67.2474 12.7328 67.2474 14.0406V19H64.1349V8.97812H67.1209V10.3469H67.1631C67.5802 9.55937 68.5974 8.72969 70.1115 8.72969C73.2615 8.72969 73.8474 10.8062 73.8474 13.5062V19Z" fill="#545454"/>
<path d="M47.9934 1H28.6734C28.2087 1 27.8334 1.37537 27.8334 1.84V21.16C27.8334 21.6246 28.2087 22 28.6734 22H47.9934C48.458 22 48.8334 21.6246 48.8334 21.16V1.84C48.8334 1.37537 48.458 1 47.9934 1ZM43.985 8.60463C43.9929 8.728 43.9929 8.85662 43.9929 8.98262C43.9929 12.8361 41.0581 17.275 35.6952 17.275C34.0415 17.275 32.5085 16.7946 31.217 15.9677C31.4532 15.994 31.679 16.0045 31.9205 16.0045C33.2855 16.0045 34.5402 15.5425 35.5404 14.7602C34.2594 14.734 33.1831 13.894 32.8156 12.739C33.2645 12.8046 33.6687 12.8046 34.1307 12.6865C33.4712 12.5525 32.8783 12.1943 32.4529 11.6727C32.0275 11.1511 31.7958 10.4983 31.7971 9.82525V9.7885C32.183 10.0064 32.6371 10.1402 33.1122 10.1586C32.7128 9.89244 32.3853 9.5318 32.1586 9.1087C31.932 8.6856 31.8132 8.21311 31.8129 7.73312C31.8129 7.18975 31.9546 6.69362 32.2092 6.26312C32.9414 7.16438 33.8549 7.9015 34.8906 8.42656C35.9262 8.95162 37.0608 9.25288 38.2205 9.31075C37.8084 7.32887 39.2889 5.725 41.0686 5.725C41.9086 5.725 42.6646 6.07675 43.1975 6.64375C43.8564 6.52037 44.4864 6.27362 45.0481 5.94287C44.8302 6.6175 44.3735 7.18712 43.7671 7.54675C44.3551 7.48375 44.9221 7.321 45.4471 7.09262C45.0507 7.67537 44.5546 8.1925 43.985 8.60463Z" fill="#545454"/>
<path d="M19.845 1H1.155C0.848675 1 0.554896 1.12169 0.338292 1.33829C0.121687 1.5549 0 1.84867 0 2.155V20.845C0 21.1513 0.121687 21.4451 0.338292 21.6617C0.554896 21.8783 0.848675 22 1.155 22H11.214V13.8625H8.484V10.7125H11.214V8.35C11.1574 7.79534 11.2229 7.23503 11.4059 6.70836C11.5888 6.18169 11.8847 5.70142 12.2729 5.30123C12.6611 4.90104 13.1321 4.59062 13.653 4.39175C14.1738 4.19288 14.7319 4.11036 15.288 4.15C16.1052 4.14497 16.9221 4.18704 17.7345 4.276V7.111H16.065C14.742 7.111 14.49 7.741 14.49 8.6545V10.681H17.64L17.2305 13.831H14.49V22H19.845C19.9967 22 20.1469 21.9701 20.287 21.9121C20.4271 21.854 20.5545 21.769 20.6617 21.6617C20.769 21.5545 20.854 21.4271 20.9121 21.287C20.9701 21.1469 21 20.9967 21 20.845V2.155C21 2.00332 20.9701 1.85313 20.9121 1.713C20.854 1.57287 20.769 1.44554 20.6617 1.33829C20.5545 1.23104 20.4271 1.14596 20.287 1.08792C20.1469 1.02988 19.9967 1 19.845 1Z" fill="#545454"/>
</svg>
