<svg width="11" height="7" viewBox="0 0 11 7" fill="none" xmlns="http://www.w3.org/2000/svg">
<path fill-rule="evenodd" clip-rule="evenodd" d="M6.32276 6.32238C6.10635 6.53852 5.813 6.65993 5.50713 6.65993C5.20127 6.65993 4.90792 6.53852 4.6915 6.32238L0.337891 1.9703C0.121471 1.75378 -7.21189e-05 1.46015 3.21046e-08 1.15402C7.21831e-05 0.847881 0.121753 0.554312 0.338276 0.337892C0.554798 0.121471 0.848425 -7.21189e-05 1.15456 3.21045e-08C1.4607 7.21831e-05 1.75427 0.121754 1.97069 0.338276L5.50713 3.87472L9.04358 0.338276C9.26116 0.127926 9.55266 0.0114506 9.85529 0.0139367C10.1579 0.0164228 10.4475 0.137671 10.6616 0.351568C10.8757 0.565465 10.9972 0.854894 11 1.15752C11.0027 1.46015 10.8865 1.75175 10.6764 1.96953L6.32353 6.32315L6.32276 6.32238Z" fill="white"/>
</svg>
