<svg width="15" height="14" viewBox="0 0 15 14" fill="none" xmlns="http://www.w3.org/2000/svg">
<path d="M14.4729 12.5947L11.2992 9.421C12.0633 8.40381 12.4758 7.16566 12.4744 5.89344C12.4744 2.64382 9.83056 0 6.58094 0C3.33132 0 0.6875 2.64382 0.6875 5.89344C0.6875 9.14306 3.33132 11.7869 6.58094 11.7869C7.85316 11.7883 9.09131 11.3758 10.1085 10.6117L13.2822 13.7854C13.4429 13.929 13.6524 14.0057 13.8678 13.9997C14.0832 13.9936 14.2881 13.9054 14.4405 13.753C14.5929 13.6006 14.6811 13.3957 14.6872 13.1803C14.6932 12.9649 14.6165 12.7554 14.4729 12.5947ZM2.37134 5.89344C2.37134 5.06086 2.61823 4.24698 3.08079 3.55471C3.54334 2.86245 4.20079 2.32289 4.97 2.00428C5.7392 1.68566 6.58561 1.6023 7.40219 1.76473C8.21877 1.92715 8.96885 2.32808 9.55758 2.9168C10.1463 3.50553 10.5472 4.25561 10.7097 5.07219C10.8721 5.88877 10.7887 6.73518 10.4701 7.50438C10.1515 8.27359 9.61193 8.93104 8.91967 9.39359C8.2274 9.85615 7.41352 10.103 6.58094 10.103C5.4649 10.1017 4.39495 9.65776 3.60578 8.8686C2.81662 8.07943 2.37268 7.00948 2.37134 5.89344Z" fill="#545454"/>
</svg>
