<svg width="9" height="6" viewBox="0 0 9 6" fill="none" xmlns="http://www.w3.org/2000/svg">
<path fill-rule="evenodd" clip-rule="evenodd" d="M5.17317 5.17286C4.99611 5.3497 4.75609 5.44903 4.50584 5.44903C4.25559 5.44903 4.01557 5.3497 3.8385 5.17286L0.276457 1.61207C0.0993853 1.43491 -5.90064e-05 1.19467 2.62674e-08 0.944197C5.90589e-05 0.693721 0.0996165 0.453528 0.276771 0.276457C0.453926 0.0993857 0.694166 -5.90064e-05 0.944642 2.62673e-08C1.19512 5.90589e-05 1.43531 0.0996168 1.61238 0.276772L4.50584 3.17023L7.39929 0.276772C7.57732 0.104667 7.81581 0.00936865 8.06342 0.0114027C8.31102 0.0134368 8.54792 0.11264 8.72309 0.287646C8.89827 0.462653 8.99769 0.699459 8.99996 0.947062C9.00223 1.19466 8.90715 1.43325 8.73522 1.61144L5.1738 5.17349L5.17317 5.17286Z" fill="white"/>
</svg>
